<svg xmlns="http://www.w3.org/2000/svg" width="24" height="24" viewBox="0 0 24 24" fill="none">
  <g clip-path="url(#clip0_26_870)">
    <path d="M12.9401 11.9822L18.4667 6.4703C18.5759 6.34311 18.633 6.17949 18.6265 6.01216C18.6201 5.84482 18.5505 5.68609 18.4318 5.56768C18.313 5.44927 18.1539 5.3799 17.9861 5.37343C17.8183 5.36697 17.6543 5.42389 17.5267 5.53281L12.0001 11.0447L6.4734 5.52616C6.34786 5.40096 6.1776 5.33063 6.00006 5.33063C5.82253 5.33063 5.65227 5.40096 5.52673 5.52616C5.40119 5.65136 5.33067 5.82117 5.33067 5.99823C5.33067 6.17529 5.40119 6.3451 5.52673 6.4703L11.0601 11.9822L5.52673 17.4941C5.45694 17.5537 5.40026 17.627 5.36025 17.7095C5.32023 17.792 5.29774 17.8818 5.2942 17.9734C5.29065 18.065 5.30612 18.1563 5.33964 18.2416C5.37315 18.3269 5.42399 18.4044 5.48896 18.4692C5.55393 18.534 5.63163 18.5847 5.71718 18.6181C5.80273 18.6516 5.89429 18.667 5.9861 18.6635C6.07791 18.6599 6.168 18.6375 6.25071 18.5976C6.33342 18.5577 6.40697 18.5012 6.46673 18.4316L12.0001 12.9197L17.5267 18.4316C17.6543 18.5405 17.8183 18.5974 17.9861 18.5909C18.1539 18.5845 18.313 18.5151 18.4318 18.3967C18.5505 18.2783 18.6201 18.1195 18.6265 17.9522C18.633 17.7849 18.5759 17.6213 18.4667 17.4941L12.9401 11.9822Z" fill="black"/>
  </g>
  <defs>
    <clipPath id="clip0_26_870">
      <rect width="24" height="24" fill="white"/>
    </clipPath>
  </defs>
</svg>